<svg xmlns="http://www.w3.org/2000/svg" viewBox="0 0 1024 1024" width="1024" height="1024">
	<defs>
		<clipPath clipPathUnits="userSpaceOnUse" id="cp1">
			<path d="M0 0L1024 0L1024 1024L0 1024Z" />
		</clipPath>
	</defs>
	<style>
		tspan { white-space:pre }
		.shp0 { fill: #ffffff } 
		.shp1 { fill: #bdc3c7 } 
		.shp2 { fill: #414f6b } 
		.shp3 { fill: #ecf0f1 } 
	</style>
	<g id="Page 1" clip-path="url(#cp1)">
		<path id="Path 1" class="shp0" d="M1024 512C1024 551.82 1019.45 590.59 1010.85 627.8C822.27 729.08 777.23 723.08 534.28 723.08C377.24 723.08 214.44 953.3 120.52 841.99C45.32 752.88 0 637.73 0 512C0 229.23 229.23 0 512 0C794.77 0 1024 229.23 1024 512Z" />
		<path id="Path 2" class="shp1" d="M512 1024C754.94 1024 958.37 854.79 1010.85 627.8L914.7 490L824 548L656 312L372 676L272 636L120.55 841.97C214.47 953.28 354.96 1024 512 1024Z" />
		<path id="Path 3" class="shp2" d="M656 312L668.21 636L824 548L656 312Z" />
		<path id="Path 4" class="shp3" d="M179.23 843.14L272 867.14L362.22 978.13L527.22 834.14L461.22 681.14L656 312L372 676L272 636L172 772L179.23 843.14Z" />
		<path id="Path 5" class="shp2" d="M272 636L272 714L314.22 696.14L293.11 786.14L403.21 636L272 636ZM620.21 828.14L698.21 711.07L836.2 668L902.2 803.58L824 748.07L668.21 912.13L620.21 828.14ZM587.21 525.15L512 678.15L565.7 765.14L587.21 525.15Z" />
		<path id="Path 6" class="shp3" d="M863.2 576.15L902.2 693.15L950.19 645.15L863.2 576.15Z" />
		<path id="Path 7" class="shp1" d="M362.22 837.14L414 765.14L388.11 855.14L362.22 837.14Z" />
	</g>
</svg>